<?xml version="1.0" encoding="UTF-8"?><svg id="Layer_1" xmlns="http://www.w3.org/2000/svg" xmlns:xlink="http://www.w3.org/1999/xlink" viewBox="0 0 203.95264 192.88266"><defs><style>.cls-1{fill:url(#linear-gradient-2);}.cls-2{fill:#d9d9d9;}.cls-3{fill:url(#linear-gradient);}</style><linearGradient id="linear-gradient" x1="59.33054" y1="14.63135" x2="146.43215" y2="154.09839" gradientUnits="userSpaceOnUse"><stop offset="0" stop-color="#333"/><stop offset=".2553" stop-color="#484848"/><stop offset=".7254" stop-color="#797979"/></linearGradient><linearGradient id="linear-gradient-2" x1="77.07253" y1="44.10789" x2="135.59228" y2="137.80967" xlink:href="#linear-gradient"/></defs><g id="NoteRoomSquareVertical-logo"><path class="cls-2" d="M18.55811,171.86118c1.22705,1.84668,1.86523,4.00684,1.91455,6.47949v14.49219h-4.60254v-14.14551c.04883-1.35254-.29492-2.48926-1.03125-3.41309-.76123-.92285-1.64502-1.35156-2.65088-1.28613h-2.43066c-1.47266.0332-2.7124.75879-3.71875,2.17578-1.00684,1.41895-1.49756,3.11621-1.47266,5.09473v11.57422H0v-18.84473l4.60254-4.89648v4.2041l.73633-1.38477c.24512-.56055.55225-1.05566.92041-1.48438.36865-.42773.78564-.75781,1.25195-.98926.46631-.23047.94482-.3457,1.43604-.3457h4.63965c.61328-.06543,1.22705,0,1.84131.19727.61328.19824,1.18408.51953,1.71191.96484s1,.98145,1.41797,1.60742Z"/><path class="cls-2" d="M45.91602,171.5643c1.34961,1.45117,2.0127,3.34766,1.98828,5.68848v7.36914c0,2.30859-.6626,4.18848-1.98828,5.63867-1.3501,1.68164-2.93359,2.50684-4.75,2.47363h-10.12598c-1.84082.0332-3.43701-.79199-4.78662-2.47363-.41748-.46094-.77344-.99707-1.06787-1.60742-.29443-.60938-.52197-1.26074-.68115-1.95312-.16016-.69238-.23926-1.40137-.23926-2.12695v-7.32031c0-2.30762.6626-4.2041,1.98828-5.68848,1.32568-1.68164,2.89648-2.50488,4.71338-2.47266h10.23633c1.81592-.03223,3.38721.79102,4.71289,2.47266ZM43.41211,183.53403v-5.3418c0-1.21973-.33105-2.24219-.99414-3.06641-.7124-.98926-1.58301-1.45117-2.61426-1.38477h-7.40088c-1.03125-.06641-1.91504.39551-2.65137,1.38477-.6626.85742-.99414,1.89648-.99414,3.11621v5.24219c.02393,1.2207.35547,2.25977.99414,3.11621.73633.95703,1.62012,1.41797,2.65137,1.38477h7.40088c1.03125.06738,1.90186-.39551,2.61426-1.38477.66309-.82324.99414-1.8457.99414-3.06641Z"/><path class="cls-2" d="M62.78027,188.38169h5.26562l-1.10498,4.40137h-6.18604c-1.69336.16504-3.1792-.46094-4.45508-1.87891-1.05566-1.5498-1.52246-3.36328-1.39941-5.44141v-12.2168h-4.23438l1.03076-4.1543h3.20361v-5.14453l4.86035-3.90723v9.05176h6.88574l-1.03076,4.1543h-5.85498v11.22754c-.02441,1.02246.18408,1.96289.62598,2.81934.66309.8584,1.46045,1.2207,2.39355,1.08887Z"/><path class="cls-2" d="M78.76074,183.18833c-1.79248-.06641-2.87207-.39648-3.24023-.98926v1.43359c-.0249,1.38574.34326,2.52246,1.10449,3.41309.81006.8584,1.71777,1.28613,2.72461,1.28613h11.93018l-1.1416,4.50098h-12.11426c-1.93945.03223-3.62109-.84082-5.04443-2.62109-.6626-.75879-1.18457-1.66504-1.56494-2.7207-.38086-1.05469-.5708-2.17676-.5708-3.36328v-6.33105c0-2.47363.71191-4.50098,2.13574-6.08398,1.39941-1.78027,3.06836-2.65332,5.00781-2.62109h7.62207c1.42334,0,2.63281.21484,3.62695.64258.99414.42871,1.73047,1.00684,2.20947,1.73145.47852.72559.81543,1.45117,1.01221,2.17578.19629.72656.29492,1.51758.29492,2.375,0,.69238-.03711,1.32715-.11084,1.9043-.07324.57715-.24561,1.21094-.51514,1.90332-.27051.69336-.63867,1.27051-1.10498,1.73145-.46631.46191-1.12305.84961-1.96973,1.16211-.84717.31445-1.85938.4707-3.0376.4707h-7.25391ZM86.82471,172.99887h-8.63477c-.20898,0-.50342.05762-.88379.17285-.38086.11621-.68115.27246-.90234.46973-.2207.19824-.42334.49512-.60742.89062s-.27588.89062-.27588,1.48438c0,.46191.06055.87402.18408,1.23633.12256.36328.27588.65137.45996.86523.18408.21484.39258.39551.62598.54395.23291.14844.46045.24023.68115.27246.22119.0332.42383.05762.60791.07422s.33691.02441.45996.02441h7.54834c2.06201,0,3.09326-1.00488,3.09326-3.0166,0-.85742-.23389-1.58301-.69971-2.17676-.4668-.59375-1.01904-.87305-1.65674-.84082Z"/><path class="cls-2" d="M105.7876,169.14048h6.62695l-1.28809,4.99609h-3.2041c-1.86523,0-3.44922.88281-4.75,2.64648s-1.95117,3.88184-1.95117,6.35547v9.74414h-4.78662v-23.74219h4.86035l-.03662,4.20508.73633-1.38574c.41699-.85645.96289-1.54102,1.63867-2.05273.6748-.51074,1.39258-.7666,2.1543-.7666Z"/><path class="cls-2" d="M135.94385,171.5643c1.34961,1.45117,2.01172,3.34766,1.98828,5.68848v7.36914c0,2.30859-.66309,4.18848-1.98828,5.63867-1.35059,1.68164-2.93359,2.50684-4.75,2.47363h-10.12598c-1.8418.0332-3.4375-.79199-4.78711-2.47363-.41797-.46094-.77344-.99707-1.06738-1.60742-.29492-.60938-.52246-1.26074-.68164-1.95312-.16016-.69238-.23926-1.40137-.23926-2.12695v-7.32031c0-2.30762.66309-4.2041,1.98828-5.68848,1.3252-1.68164,2.89648-2.50488,4.71289-2.47266h10.23633c1.81641-.03223,3.3877.79102,4.71387,2.47266ZM133.43994,183.53403v-5.3418c0-1.21973-.33203-2.24219-.99414-3.06641-.71289-.98926-1.58398-1.45117-2.61426-1.38477h-7.40137c-1.03125-.06641-1.91504.39551-2.65137,1.38477-.66309.85742-.99414,1.89648-.99414,3.11621v5.24219c.02441,1.2207.35547,2.25977.99414,3.11621.73633.95703,1.62012,1.41797,2.65137,1.38477h7.40137c1.03027.06738,1.90137-.39551,2.61426-1.38477.66211-.82324.99414-1.8457.99414-3.06641Z"/><path class="cls-2" d="M163.22803,171.5643c1.34961,1.45117,2.01172,3.34766,1.98828,5.68848v7.36914c0,2.30859-.66309,4.18848-1.98828,5.63867-1.35059,1.68164-2.93359,2.50684-4.75,2.47363h-10.12598c-1.8418.0332-3.4375-.79199-4.78711-2.47363-.41797-.46094-.77344-.99707-1.06738-1.60742-.29492-.60938-.52246-1.26074-.68164-1.95312-.16016-.69238-.23926-1.40137-.23926-2.12695v-7.32031c0-2.30762.66309-4.2041,1.98828-5.68848,1.3252-1.68164,2.89648-2.50488,4.71289-2.47266h10.23633c1.81641-.03223,3.3877.79102,4.71387,2.47266ZM160.72412,183.53403v-5.3418c0-1.21973-.33203-2.24219-.99414-3.06641-.71289-.98926-1.58398-1.45117-2.61426-1.38477h-7.40137c-1.03125-.06641-1.91504.39551-2.65137,1.38477-.66309.85742-.99414,1.89648-.99414,3.11621v5.24219c.02441,1.2207.35547,2.25977.99414,3.11621.73633.95703,1.62012,1.41797,2.65137,1.38477h7.40137c1.03027.06738,1.90137-.39551,2.61426-1.38477.66211-.82324.99414-1.8457.99414-3.06641Z"/><path class="cls-2" d="M201.92725,171.71274c1.34961,1.58301,2.02539,3.59473,2.02539,6.03418v15.08594h-4.56543v-14.14551c.02344-1.35254-.33203-2.48926-1.06836-3.41309-.73633-.92285-1.6084-1.35156-2.61426-1.28613h-3.75586c-.88379.0332-1.62598.46973-2.22754,1.31055s-.88965,1.85449-.86523,3.04199v14.49219h-4.60254v-14.14551c.04883-1.35254-.30762-2.48926-1.06836-3.41309-.73633-.92285-1.60742-1.35156-2.61426-1.28613h-1.69336c-1.47266.0332-2.71289.75879-3.71875,2.17578-1.00684,1.41895-1.49805,3.11621-1.47363,5.09473v11.57422h-4.56543v-18.84473l4.60254-4.89648.03711,4.2041.69922-1.38477c.36816-.85742.87793-1.5332,1.52832-2.02832.65039-.49414,1.34375-.75781,2.08008-.79102h3.86621c1.98828-.13184,3.64551.79102,4.9707,2.76953l.51562.79102.47949-.84082c.19531-.42773.42285-.80762.68066-1.13672.25781-.33008.54004-.61035.84668-.8418.30664-.22949.63867-.41113.99414-.54395.35547-.13086.71875-.19727,1.08691-.19727h5.59668c1.88965-.03223,3.49805.84082,4.82324,2.62109Z"/><path class="cls-3" d="M132.16221,31.73385c-.82523-12.01015-10.96798-22.05327-23.02144-22.69087-4.30351-.22508-9.8801-.20997-14.18928,0-3.78889.18574-7.37769,1.27291-10.55174,3.0435V0l-3.17175,5.10408c-2.78405-.34265-2.9808-.34265-5.92459-.00006l-3.50449-5.10402h-.02682v34.21359l.00513-.00631c-.01934,14.06158.02998,95.90656.0204,103.75019-.00075.61003.10108,1.21748.33386,1.78135,1.71802,4.16168,8.03895,3.80121,9.26522-.73422.10441-.38624.14677-.78701.14684-1.18714l.01127-104.83771c0-.12342.00353-.24718.0128-.37025.56091-7.4375,6.65256-13.30821,14.09325-13.78097,4.0973-.26106,13.06938-.42752,16.7373.85313,5.73008,1.99875,9.60906,7.34293,9.98811,13.37786.00686.10909.00944.21785.0094.32711-.00146,4.39092-.1419,94.2506-.14305,104.34979-.00012,1.04095.30948,2.07154.95041,2.89176,2.03314,2.60188,6.226,2.55348,8.12842-.07731.57376-.79344.84769-1.76562.84769-2.74478l-.00002-106.07482-.01694.00258Z"/><path class="cls-1" d="M106.44763,28.05168h-8.94345c-4.04981,0-7.33282,3.28302-7.33282,7.33282v97.60672c0,3.26165,2.64409,5.90574,5.90574,5.90574h11.79766c3.26165,0,5.90574-2.64409,5.90574-5.90574V35.38454c0-4.04983-3.28303-7.33286-7.33286-7.33286Z"/></g></svg>