<?xml version="1.0" encoding="UTF-8"?>
<svg id="Layer_2" data-name="Layer 2" xmlns="http://www.w3.org/2000/svg" xmlns:xlink="http://www.w3.org/1999/xlink" viewBox="0 0 203.95 192.88">
  <defs>
    <style>
      .cls-1 {
        fill: url(#linear-gradient-2);
      }

      .cls-2 {
        fill: url(#linear-gradient);
      }
    </style>
    <linearGradient id="linear-gradient" x1="59.33" y1="14.63" x2="146.43" y2="154.1" gradientUnits="userSpaceOnUse">
      <stop offset="0" stop-color="#3c59a7"/>
      <stop offset=".18" stop-color="#3d6eb5"/>
      <stop offset=".56" stop-color="#41a5da"/>
      <stop offset=".73" stop-color="#44c0ec"/>
    </linearGradient>
    <linearGradient id="linear-gradient-2" x1="77.07" y1="44.11" x2="135.59" y2="137.81" xlink:href="#linear-gradient"/>
  </defs>
  <g id="Layer_1-2" data-name="Layer 1">
    <g id="NoteRoomSquareVertical-logo">
      <g>
        <path d="M18.56,171.86c1.23,1.85,1.87,4.01,1.91,6.48v14.49h-4.6v-14.15c.05-1.35-.29-2.49-1.03-3.41-.76-.92-1.65-1.35-2.65-1.29h-2.43c-1.47.03-2.71.76-3.72,2.18-1.01,1.42-1.5,3.12-1.47,5.09v11.57H0v-18.84l4.6-4.9v4.2l.74-1.38c.25-.56.55-1.06.92-1.48.37-.43.79-.76,1.25-.99.47-.23.94-.35,1.44-.35h4.64c.61-.07,1.23,0,1.84.2.61.2,1.18.52,1.71.96s1,.98,1.42,1.61Z"/>
        <path d="M45.92,171.56c1.35,1.45,2.01,3.35,1.99,5.69v7.37c0,2.31-.66,4.19-1.99,5.64-1.35,1.68-2.93,2.51-4.75,2.47h-10.13c-1.84.03-3.44-.79-4.79-2.47-.42-.46-.77-1-1.07-1.61-.29-.61-.52-1.26-.68-1.95-.16-.69-.24-1.4-.24-2.13v-7.32c0-2.31.66-4.2,1.99-5.69,1.33-1.68,2.9-2.5,4.71-2.47h10.24c1.82-.03,3.39.79,4.71,2.47ZM43.41,183.53v-5.34c0-1.22-.33-2.24-.99-3.07-.71-.99-1.58-1.45-2.61-1.38h-7.4c-1.03-.07-1.92.4-2.65,1.38-.66.86-.99,1.9-.99,3.12v5.24c.02,1.22.36,2.26.99,3.12.74.96,1.62,1.42,2.65,1.38h7.4c1.03.07,1.9-.4,2.61-1.38.66-.82.99-1.85.99-3.07Z"/>
        <path d="M62.78,188.38h5.27l-1.1,4.4h-6.19c-1.69.17-3.18-.46-4.46-1.88-1.06-1.55-1.52-3.36-1.4-5.44v-12.22h-4.23l1.03-4.15h3.2v-5.14l4.86-3.91v9.05h6.89l-1.03,4.15h-5.85v11.23c-.02,1.02.18,1.96.63,2.82.66.86,1.46,1.22,2.39,1.09Z"/>
        <path d="M78.76,183.19c-1.79-.07-2.87-.4-3.24-.99v1.43c-.02,1.39.34,2.52,1.1,3.41.81.86,1.72,1.29,2.72,1.29h11.93l-1.14,4.5h-12.11c-1.94.03-3.62-.84-5.04-2.62-.66-.76-1.18-1.67-1.56-2.72-.38-1.05-.57-2.18-.57-3.36v-6.33c0-2.47.71-4.5,2.14-6.08,1.4-1.78,3.07-2.65,5.01-2.62h7.62c1.42,0,2.63.21,3.63.64.99.43,1.73,1.01,2.21,1.73.48.73.82,1.45,1.01,2.18.2.73.29,1.52.29,2.38,0,.69-.04,1.33-.11,1.9-.07.58-.25,1.21-.52,1.9-.27.69-.64,1.27-1.1,1.73-.47.46-1.12.85-1.97,1.16-.85.31-1.86.47-3.04.47h-7.25ZM86.82,173h-8.63c-.21,0-.5.06-.88.17-.38.12-.68.27-.9.47-.22.2-.42.5-.61.89s-.28.89-.28,1.48c0,.46.06.87.18,1.24.12.36.28.65.46.87.18.21.39.4.63.54.23.15.46.24.68.27.22.03.42.06.61.07s.34.02.46.02h7.55c2.06,0,3.09-1,3.09-3.02,0-.86-.23-1.58-.7-2.18-.47-.59-1.02-.87-1.66-.84Z"/>
        <path d="M105.79,169.14h6.63l-1.29,5h-3.2c-1.87,0-3.45.88-4.75,2.65s-1.95,3.88-1.95,6.36v9.74h-4.79v-23.74h4.86l-.04,4.21.74-1.39c.42-.86.96-1.54,1.64-2.05.67-.51,1.39-.77,2.15-.77Z"/>
        <path d="M135.94,171.56c1.35,1.45,2.01,3.35,1.99,5.69v7.37c0,2.31-.66,4.19-1.99,5.64-1.35,1.68-2.93,2.51-4.75,2.47h-10.13c-1.84.03-3.44-.79-4.79-2.47-.42-.46-.77-1-1.07-1.61-.29-.61-.52-1.26-.68-1.95-.16-.69-.24-1.4-.24-2.13v-7.32c0-2.31.66-4.2,1.99-5.69,1.33-1.68,2.9-2.5,4.71-2.47h10.24c1.82-.03,3.39.79,4.71,2.47ZM133.44,183.53v-5.34c0-1.22-.33-2.24-.99-3.07-.71-.99-1.58-1.45-2.61-1.38h-7.4c-1.03-.07-1.92.4-2.65,1.38-.66.86-.99,1.9-.99,3.12v5.24c.02,1.22.36,2.26.99,3.12.74.96,1.62,1.42,2.65,1.38h7.4c1.03.07,1.9-.4,2.61-1.38.66-.82.99-1.85.99-3.07Z"/>
        <path d="M163.23,171.56c1.35,1.45,2.01,3.35,1.99,5.69v7.37c0,2.31-.66,4.19-1.99,5.64-1.35,1.68-2.93,2.51-4.75,2.47h-10.13c-1.84.03-3.44-.79-4.79-2.47-.42-.46-.77-1-1.07-1.61-.29-.61-.52-1.26-.68-1.95-.16-.69-.24-1.4-.24-2.13v-7.32c0-2.31.66-4.2,1.99-5.69,1.33-1.68,2.9-2.5,4.71-2.47h10.24c1.82-.03,3.39.79,4.71,2.47ZM160.72,183.53v-5.34c0-1.22-.33-2.24-.99-3.07-.71-.99-1.58-1.45-2.61-1.38h-7.4c-1.03-.07-1.92.4-2.65,1.38-.66.86-.99,1.9-.99,3.12v5.24c.02,1.22.36,2.26.99,3.12.74.96,1.62,1.42,2.65,1.38h7.4c1.03.07,1.9-.4,2.61-1.38.66-.82.99-1.85.99-3.07Z"/>
        <path d="M201.93,171.71c1.35,1.58,2.03,3.59,2.03,6.03v15.09h-4.57v-14.15c.02-1.35-.33-2.49-1.07-3.41-.74-.92-1.61-1.35-2.61-1.29h-3.76c-.88.03-1.63.47-2.23,1.31s-.89,1.85-.87,3.04v14.49h-4.6v-14.15c.05-1.35-.31-2.49-1.07-3.41-.74-.92-1.61-1.35-2.61-1.29h-1.69c-1.47.03-2.71.76-3.72,2.18-1.01,1.42-1.5,3.12-1.47,5.09v11.57h-4.57v-18.84l4.6-4.9.04,4.2.7-1.38c.37-.86.88-1.53,1.53-2.03.65-.49,1.34-.76,2.08-.79h3.87c1.99-.13,3.65.79,4.97,2.77l.52.79.48-.84c.2-.43.42-.81.68-1.14.26-.33.54-.61.85-.84.31-.23.64-.41.99-.54.36-.13.72-.2,1.09-.2h5.6c1.89-.03,3.5.84,4.82,2.62Z"/>
      </g>
      <g>
        <path class="cls-2" d="M132.16,31.73c-.83-12.01-10.97-22.05-23.02-22.69-4.3-.23-9.88-.21-14.19,0-3.79.19-7.38,1.27-10.55,3.04V0l-3.17,5.1c-2.78-.34-2.98-.34-5.92,0l-3.5-5.1h-.03v34.21h0c-.02,14.06.03,95.9.02,103.74,0,.61.1,1.22.33,1.78,1.72,4.16,8.04,3.8,9.27-.73.1-.39.15-.79.15-1.19V32.98c.01-.12.01-.25.02-.37.56-7.44,6.65-13.31,14.09-13.78,4.1-.26,13.07-.43,16.74.85,5.73,2,9.61,7.34,9.99,13.38,0,.11,0,.22,0,.33,0,4.39-.14,94.25-.14,104.35,0,1.04.31,2.07.95,2.89,2.03,2.6,6.23,2.55,8.13-.08.57-.79.85-1.77.85-2.74V31.73s-.02,0-.02,0Z"/>
        <path class="cls-1" d="M106.45,28.05h-8.94c-4.05,0-7.33,3.28-7.33,7.33v97.61c0,3.26,2.64,5.91,5.91,5.91h11.8c3.26,0,5.91-2.64,5.91-5.91V35.38c0-4.05-3.28-7.33-7.33-7.33Z"/>
      </g>
    </g>
  </g>
</svg>