<?xml version="1.0" encoding="UTF-8"?><svg id="Layer_1" xmlns="http://www.w3.org/2000/svg" xmlns:xlink="http://www.w3.org/1999/xlink" viewBox="0 0 407.73306 181.15633"><defs><style>.cls-1{fill:url(#linear-gradient-2);}.cls-2{fill:#d9d9d9;}.cls-3{fill:url(#linear-gradient);}</style><linearGradient id="linear-gradient" x1="42.92155" y1="58.32429" x2="92.47671" y2="137.67198" gradientUnits="userSpaceOnUse"><stop offset="0" stop-color="#333"/><stop offset=".2553" stop-color="#484848"/><stop offset=".7254" stop-color="#797979"/></linearGradient><linearGradient id="linear-gradient-2" x1="53.01559" y1="75.09453" x2="86.30953" y2="128.40476" xlink:href="#linear-gradient"/></defs><g id="NoteRoom-logo"><path class="cls-2" d="M142.3439,82.97885c1.42578,2.146,2.16699,4.6543,2.22461,7.52734v16.83691h-5.34766v-16.43457c.05664-1.57031-.3418-2.8916-1.19727-3.96484-.88477-1.07178-1.91113-1.56982-3.08008-1.49365h-2.82422c-1.71094.03857-3.15137.88184-4.32031,2.52783-1.16992,1.64746-1.74023,3.62012-1.71094,5.91895v13.44629h-5.30469v-21.89307l5.34766-5.68896v4.88428l.85547-1.60889c.28418-.65088.6416-1.22559,1.06934-1.72363.42773-.49756.91211-.88086,1.4541-1.14941.54199-.26758,1.09766-.40234,1.66895-.40234h5.38965c.71289-.07617,1.42578,0,2.13867.22998s1.37598.60352,1.98926,1.12061,1.16211,1.14014,1.64746,1.86719Z"/><path class="cls-2" d="M174.12808,82.63413c1.56836,1.68652,2.33789,3.88867,2.30957,6.6084v8.56152c0,2.68164-.76953,4.86523-2.30957,6.55078-1.56934,1.9541-3.4082,2.91211-5.51855,2.87305h-11.76367c-2.13965.03906-3.99316-.91895-5.56152-2.87305-.48535-.53613-.89844-1.1582-1.24121-1.86719-.3418-.70898-.60547-1.46582-.79102-2.26953-.18555-.80469-.27832-1.62793-.27832-2.47168v-8.50391c0-2.68164.77051-4.88428,2.31055-6.6084,1.54004-1.95361,3.36426-2.91064,5.47559-2.87305h11.89258c2.11035-.0376,3.93555.91943,5.47559,2.87305ZM171.2189,96.54038v-6.20605c0-1.41699-.38477-2.60449-1.15527-3.5625-.82715-1.14941-1.83887-1.68555-3.03711-1.60889h-8.59863c-1.19727-.07666-2.22461.45947-3.08008,1.60889-.76953.99609-1.1543,2.20312-1.1543,3.62012v6.09082c.02734,1.41797.41309,2.62402,1.1543,3.62012.85547,1.11133,1.88281,1.64746,3.08008,1.6084h8.59863c1.19824.07715,2.20996-.45898,3.03711-1.6084.77051-.95703,1.15527-2.14551,1.15527-3.5625Z"/><path class="cls-2" d="M193.72086,102.17124h6.11719l-1.2832,5.11426h-7.18652c-1.96777.19141-3.69434-.53613-5.17676-2.18359-1.22656-1.7998-1.76855-3.90723-1.625-6.32129v-14.19238h-4.91992l1.19824-4.82715h3.72168v-5.97607l5.64648-4.53955v10.51562h8l-1.19824,4.82715h-6.80176v13.04395c-.0293,1.1875.21387,2.2793.72754,3.27539.76953.99609,1.69629,1.41699,2.78027,1.26367Z"/><path class="cls-2" d="M212.28677,96.13803c-2.08252-.07617-3.3374-.45996-3.76514-1.14941v1.66602c-.0293,1.60938.39844,2.93066,1.2832,3.96484.94141.99707,1.99658,1.49414,3.1665,1.49414h13.85938l-1.3252,5.22949h-14.07422c-2.25439.03809-4.20752-.97656-5.86182-3.0459-.76953-.88086-1.37598-1.93359-1.81738-3.16016-.44336-1.22559-.66309-2.52832-.66309-3.90723v-7.35547c0-2.87305.82617-5.229,2.48047-7.06787,1.62598-2.06836,3.56445-3.08301,5.81885-3.04541h8.85449c1.6543,0,3.05957.24951,4.21387.74707,1.15527.49854,2.01074,1.16895,2.56738,2.01123.55566.84326.94727,1.68604,1.17578,2.52832.22852.84326.34277,1.76221.34277,2.7583,0,.80469-.04297,1.54199-.12891,2.21191-.08496.6709-.28516,1.4082-.59863,2.21191-.31445.80469-.74219,1.47559-1.2832,2.01172-.54199.53711-1.30469.98633-2.28906,1.35059-.9834.36426-2.16016.5459-3.5293.5459h-8.42676ZM221.65494,84.30063h-10.03125c-.24365,0-.58545.06738-1.02783.20117-.44238.13477-.79102.31592-1.04785.5459s-.49219.57471-.70605,1.03418-.32031,1.03467-.32031,1.72412c0,.53711.07031,1.01562.21387,1.43652.14258.42188.32031.75684.53418,1.00586s.45605.45898.72754.63184c.27051.17188.53516.27734.79102.31543.25684.03906.49219.06738.70654.08691.21387.01953.3916.02832.53516.02832h8.76953c2.39551,0,3.59375-1.16797,3.59375-3.50488,0-.99609-.27148-1.83887-.81348-2.52832s-1.18359-1.01465-1.9248-.97705Z"/><path class="cls-2" d="M243.68619,79.8187h7.7002l-1.49805,5.80371h-3.72168c-2.16699,0-4.00684,1.02539-5.51855,3.07422-1.51172,2.0498-2.2666,4.51074-2.2666,7.38379v11.32031h-5.56152v-27.58203h5.64648l-.04297,4.88428.85645-1.60889c.48438-.99561,1.11816-1.79053,1.90332-2.38477.78418-.59375,1.61816-.89062,2.50293-.89062Z"/><path class="cls-2" d="M278.72135,82.63413c1.56836,1.68652,2.33789,3.88867,2.30957,6.6084v8.56152c0,2.68164-.76953,4.86523-2.30957,6.55078-1.56934,1.9541-3.4082,2.91211-5.51855,2.87305h-11.76367c-2.13965.03906-3.99316-.91895-5.56152-2.87305-.48535-.53613-.89844-1.1582-1.24121-1.86719-.3418-.70898-.60547-1.46582-.79102-2.26953-.18555-.80469-.27832-1.62793-.27832-2.47168v-8.50391c0-2.68164.77051-4.88428,2.31055-6.6084,1.54004-1.95361,3.36426-2.91064,5.47559-2.87305h11.89258c2.11035-.0376,3.93555.91943,5.47559,2.87305ZM275.81217,96.54038v-6.20605c0-1.41699-.38477-2.60449-1.15527-3.5625-.82715-1.14941-1.83887-1.68555-3.03711-1.60889h-8.59863c-1.19727-.07666-2.22461.45947-3.08008,1.60889-.76953.99609-1.1543,2.20312-1.1543,3.62012v6.09082c.02734,1.41797.41309,2.62402,1.1543,3.62012.85547,1.11133,1.88281,1.64746,3.08008,1.6084h8.59863c1.19824.07715,2.20996-.45898,3.03711-1.6084.77051-.95703,1.15527-2.14551,1.15527-3.5625Z"/><path class="cls-2" d="M310.41959,82.63413c1.56836,1.68652,2.33789,3.88867,2.30957,6.6084v8.56152c0,2.68164-.76953,4.86523-2.30957,6.55078-1.56934,1.9541-3.4082,2.91211-5.51855,2.87305h-11.76367c-2.13965.03906-3.99316-.91895-5.56152-2.87305-.48535-.53613-.89844-1.1582-1.24121-1.86719-.3418-.70898-.60547-1.46582-.79102-2.26953-.18555-.80469-.27832-1.62793-.27832-2.47168v-8.50391c0-2.68164.77051-4.88428,2.31055-6.6084,1.54004-1.95361,3.36426-2.91064,5.47559-2.87305h11.89258c2.11035-.0376,3.93555.91943,5.47559,2.87305ZM307.51041,96.54038v-6.20605c0-1.41699-.38477-2.60449-1.15527-3.5625-.82715-1.14941-1.83887-1.68555-3.03711-1.60889h-8.59863c-1.19727-.07666-2.22461.45947-3.08008,1.60889-.76953.99609-1.1543,2.20312-1.1543,3.62012v6.09082c.02734,1.41797.41309,2.62402,1.1543,3.62012.85547,1.11133,1.88281,1.64746,3.08008,1.6084h8.59863c1.19824.07715,2.20996-.45898,3.03711-1.6084.77051-.95703,1.15527-2.14551,1.15527-3.5625Z"/><path class="cls-2" d="M355.38052,82.80649c1.56738,1.83887,2.35254,4.17627,2.35254,7.01025v17.52637h-5.30469v-16.43457c.02832-1.57031-.38477-2.8916-1.24023-3.96484-.85547-1.07178-1.86816-1.56982-3.03809-1.49365h-4.36328c-1.02637.03857-1.88965.5459-2.58789,1.52295-.69922.97656-1.03418,2.1543-1.00488,3.5332v16.83691h-5.34766v-16.43457c.05664-1.57031-.35742-2.8916-1.24023-3.96484-.85547-1.07178-1.86816-1.56982-3.03809-1.49365h-1.96777c-1.71094.03857-3.15137.88184-4.32031,2.52783-1.16992,1.64746-1.74023,3.62012-1.71094,5.91895v13.44629h-5.30469v-21.89307l5.34766-5.68896.04199,4.88428.81348-1.60889c.42773-.99561,1.01953-1.78125,1.77539-2.35596.75488-.57471,1.56152-.88086,2.41699-.91943h4.49121c2.31055-.15234,4.23535.91943,5.77539,3.21777l.59863.91943.55664-.97656c.22754-.49756.49121-.93848.79102-1.32178.2998-.38232.62695-.7085.98438-.97705.35547-.26758.74121-.47852,1.1543-.63184.41309-.15283.83496-.22998,1.2627-.22998h6.50195c2.19531-.0376,4.06445.97705,5.60449,3.04541Z"/><path class="cls-3" d="M84.35805,68.0545c-.4695-6.83299-6.24007-12.54688-13.09771-12.90963-2.44842-.12806-5.62113-.11946-8.07278,0-2.15563.10567-4.19743.7242-6.00325,1.73155v-6.87643l-1.80452,2.90389c-1.58394-.19495-1.69588-.19495-3.37071-.00004l-1.99383-2.90386h-.01526v19.46531l.00292-.00359c-.01101,8.00013.01706,54.56461.01161,59.02712-.00042.34707.05751.69267.18994,1.01347.97744,2.36772,4.57364,2.16264,5.27131-.41772.0594-.21975.0835-.44776.08354-.6754l.00641-59.64585c0-.07022.00201-.14063.00728-.21065.31912-4.23145,3.78487-7.57151,8.01814-7.84048,2.3311-.14853,7.43563-.24323,9.52244.48538,3.26004,1.13716,5.46693,4.17765,5.68258,7.61113.0039.06207.00537.12394.00535.18611-.00083,2.49815-.08073,53.62248-.08138,59.36826-.00007.59223.17607,1.17857.54072,1.64523,1.15673,1.4803,3.54219,1.45277,4.62455-.04398.32643-.45141.48228-1.00452.48228-1.5616v-60.34969s-.00965.00147-.00965.00147Z"/><path class="cls-1" d="M69.72812,65.95958h-5.08825c-2.30408,0-4.1719,1.86782-4.1719,4.1719v55.53189c0,1.85567,1.50432,3.35998,3.35998,3.35998h6.7121c1.85567,0,3.35998-1.50432,3.35998-3.35998v-55.53187c0-2.30409-1.86783-4.17192-4.17192-4.17192Z"/></g></svg>