<?xml version="1.0" encoding="UTF-8"?>
<svg id="Layer_1" data-name="Layer 1" xmlns="http://www.w3.org/2000/svg" xmlns:xlink="http://www.w3.org/1999/xlink" viewBox="0 0 407.73 181.16">
  <defs>
    <style>
      .cls-1 {
        fill: url(#linear-gradient-2);
      }

      .cls-2 {
        fill: url(#linear-gradient);
      }
    </style>
    <linearGradient id="linear-gradient" x1="42.92" y1="125.68" x2="92.48" y2="46.33" gradientTransform="translate(0 184) scale(1 -1)" gradientUnits="userSpaceOnUse">
      <stop offset="0" stop-color="#3c59a7"/>
      <stop offset=".18" stop-color="#3d6eb5"/>
      <stop offset=".56" stop-color="#41a5da"/>
      <stop offset=".73" stop-color="#44c0ec"/>
    </linearGradient>
    <linearGradient id="linear-gradient-2" x1="53.02" y1="108.91" x2="86.31" y2="55.6" gradientTransform="translate(0 184) scale(1 -1)" gradientUnits="userSpaceOnUse">
      <stop offset="0" stop-color="#3c59a7"/>
      <stop offset=".18" stop-color="#3d6eb5"/>
      <stop offset=".56" stop-color="#41a5da"/>
      <stop offset=".73" stop-color="#44c0ec"/>
    </linearGradient>
  </defs>
  <g id="NoteRoom-logo">
    <path d="M142.34,82.98c1.43,2.15,2.17,4.65,2.22,7.53v16.84h-5.35v-16.43c.06-1.57-.34-2.89-1.2-3.96-.88-1.07-1.91-1.57-3.08-1.49h-2.82c-1.71.04-3.15.88-4.32,2.53-1.17,1.65-1.74,3.62-1.71,5.92v13.45h-5.3v-21.89l5.35-5.69v4.88l.86-1.61c.28-.65.64-1.23,1.07-1.72.43-.5.91-.88,1.45-1.15.54-.27,1.1-.4,1.67-.4h5.39c.71-.08,1.43,0,2.14.23s1.38.6,1.99,1.12,1.16,1.14,1.65,1.87h0Z"/>
    <path d="M174.13,82.63c1.57,1.69,2.34,3.89,2.31,6.61v8.56c0,2.68-.77,4.87-2.31,6.55-1.57,1.95-3.41,2.91-5.52,2.87h-11.76c-2.14.04-3.99-.92-5.56-2.87-.49-.54-.9-1.16-1.24-1.87-.34-.71-.61-1.47-.79-2.27-.19-.8-.28-1.63-.28-2.47v-8.5c0-2.68.77-4.88,2.31-6.61,1.54-1.95,3.36-2.91,5.48-2.87h11.89c2.11-.04,3.94.92,5.48,2.87ZM171.22,96.54v-6.21c0-1.42-.38-2.6-1.16-3.56-.83-1.15-1.84-1.69-3.04-1.61h-8.6c-1.2-.08-2.22.46-3.08,1.61-.77,1-1.15,2.2-1.15,3.62v6.09c.03,1.42.41,2.62,1.15,3.62.86,1.11,1.88,1.65,3.08,1.61h8.6c1.2.08,2.21-.46,3.04-1.61.77-.96,1.16-2.15,1.16-3.56Z"/>
    <path d="M193.72,102.17h6.12l-1.28,5.11h-7.19c-1.97.19-3.69-.54-5.18-2.18-1.23-1.8-1.77-3.91-1.62-6.32v-14.19h-4.92l1.2-4.83h3.72v-5.98l5.65-4.54v10.52h8l-1.2,4.83h-6.8v13.04c-.03,1.19.21,2.28.73,3.28.77,1,1.7,1.42,2.78,1.26h0Z"/>
    <path d="M212.29,96.14c-2.08-.08-3.34-.46-3.77-1.15v1.67c-.03,1.61.4,2.93,1.28,3.96.94,1,2,1.49,3.17,1.49h13.86l-1.33,5.23h-14.07c-2.25.04-4.21-.98-5.86-3.05-.77-.88-1.38-1.93-1.82-3.16-.44-1.23-.66-2.53-.66-3.91v-7.36c0-2.87.83-5.23,2.48-7.07,1.63-2.07,3.56-3.08,5.82-3.05h8.85c1.65,0,3.06.25,4.21.75,1.16.5,2.01,1.17,2.57,2.01.56.84.95,1.69,1.18,2.53.23.84.34,1.76.34,2.76,0,.8-.04,1.54-.13,2.21-.08.67-.29,1.41-.6,2.21-.31.8-.74,1.48-1.28,2.01-.54.54-1.3.99-2.29,1.35-.98.36-2.16.55-3.53.55,0,0-8.43,0-8.43,0ZM221.65,84.3h-10.03c-.24,0-.59.07-1.03.2-.44.13-.79.32-1.05.55s-.49.57-.71,1.03-.32,1.03-.32,1.72c0,.54.07,1.02.21,1.44.14.42.32.76.53,1.01s.46.46.73.63c.27.17.54.28.79.32.26.04.49.07.71.09.21.02.39.03.54.03h8.77c2.4,0,3.59-1.17,3.59-3.5,0-1-.27-1.84-.81-2.53s-1.18-1.01-1.92-.98Z"/>
    <path d="M243.69,79.82h7.7l-1.5,5.8h-3.72c-2.17,0-4.01,1.03-5.52,3.07-1.51,2.05-2.27,4.51-2.27,7.38v11.32h-5.56v-27.58h5.65l-.04,4.88.86-1.61c.48-1,1.12-1.79,1.9-2.38.78-.59,1.62-.89,2.5-.89Z"/>
    <path d="M278.72,82.63c1.57,1.69,2.34,3.89,2.31,6.61v8.56c0,2.68-.77,4.87-2.31,6.55-1.57,1.95-3.41,2.91-5.52,2.87h-11.76c-2.14.04-3.99-.92-5.56-2.87-.49-.54-.9-1.16-1.24-1.87-.34-.71-.61-1.47-.79-2.27-.19-.8-.28-1.63-.28-2.47v-8.5c0-2.68.77-4.88,2.31-6.61,1.54-1.95,3.36-2.91,5.48-2.87h11.89c2.11-.04,3.94.92,5.48,2.87ZM275.81,96.54v-6.21c0-1.42-.38-2.6-1.16-3.56-.83-1.15-1.84-1.69-3.04-1.61h-8.6c-1.2-.08-2.22.46-3.08,1.61-.77,1-1.15,2.2-1.15,3.62v6.09c.03,1.42.41,2.62,1.15,3.62.86,1.11,1.88,1.65,3.08,1.61h8.6c1.2.08,2.21-.46,3.04-1.61.77-.96,1.16-2.15,1.16-3.56Z"/>
    <path d="M310.42,82.63c1.57,1.69,2.34,3.89,2.31,6.61v8.56c0,2.68-.77,4.87-2.31,6.55-1.57,1.95-3.41,2.91-5.52,2.87h-11.76c-2.14.04-3.99-.92-5.56-2.87-.49-.54-.9-1.16-1.24-1.87-.34-.71-.61-1.47-.79-2.27-.19-.8-.28-1.63-.28-2.47v-8.5c0-2.68.77-4.88,2.31-6.61,1.54-1.95,3.36-2.91,5.48-2.87h11.89c2.11-.04,3.94.92,5.48,2.87ZM307.51,96.54v-6.21c0-1.42-.38-2.6-1.16-3.56-.83-1.15-1.84-1.69-3.04-1.61h-8.6c-1.2-.08-2.22.46-3.08,1.61-.77,1-1.15,2.2-1.15,3.62v6.09c.03,1.42.41,2.62,1.15,3.62.86,1.11,1.88,1.65,3.08,1.61h8.6c1.2.08,2.21-.46,3.04-1.61.77-.96,1.16-2.15,1.16-3.56Z"/>
    <path d="M355.38,82.81c1.57,1.84,2.35,4.18,2.35,7.01v17.53h-5.3v-16.43c.03-1.57-.38-2.89-1.24-3.96-.86-1.07-1.87-1.57-3.04-1.49h-4.36c-1.03.04-1.89.55-2.59,1.52-.7.98-1.03,2.15-1,3.53v16.84h-5.35v-16.43c.06-1.57-.36-2.89-1.24-3.96-.86-1.07-1.87-1.57-3.04-1.49h-1.97c-1.71.04-3.15.88-4.32,2.53-1.17,1.65-1.74,3.62-1.71,5.92v13.45h-5.3v-21.89l5.35-5.69.04,4.88.81-1.61c.43-1,1.02-1.78,1.78-2.36.75-.57,1.56-.88,2.42-.92h4.49c2.31-.15,4.24.92,5.78,3.22l.6.92.56-.98c.23-.5.49-.94.79-1.32.3-.38.63-.71.98-.98.36-.27.74-.48,1.15-.63.41-.15.83-.23,1.26-.23h6.5c2.2-.04,4.06.98,5.6,3.05Z"/>
    <path class="cls-2" d="M84.36,68.05c-.47-6.83-6.24-12.55-13.1-12.91-2.45-.13-5.62-.12-8.07,0-2.16.11-4.2.72-6,1.73v-6.88l-1.8,2.9c-1.58-.19-1.7-.19-3.37,0l-1.99-2.9h-.02v19.47h0c-.01,8,.02,54.56.01,59.02,0,.35.06.69.19,1.01.98,2.37,4.57,2.16,5.27-.42.06-.22.08-.45.08-.68v-59.65c0-.07,0-.14.01-.21.32-4.23,3.78-7.57,8.02-7.84,2.33-.15,7.44-.24,9.52.49,3.26,1.14,5.47,4.18,5.68,7.61,0,.06,0,.12,0,.19,0,2.5-.08,53.62-.08,59.37,0,.59.18,1.18.54,1.65,1.16,1.48,3.54,1.45,4.62-.04.33-.45.48-1,.48-1.56v-60.35h0s0,0,0,0Z"/>
    <path class="cls-1" d="M69.73,65.96h-5.09c-2.3,0-4.17,1.87-4.17,4.17v55.53c0,1.86,1.5,3.36,3.36,3.36h6.71c1.86,0,3.36-1.5,3.36-3.36v-55.53c0-2.3-1.87-4.17-4.17-4.17Z"/>
  </g>
</svg>