<?xml version="1.0" encoding="UTF-8"?><svg id="Layer_1" xmlns="http://www.w3.org/2000/svg" viewBox="0 0 127.04256 300"><defs><style>.cls-1{fill:#fff;}</style></defs><g id="NoteRoomLogoMark-logomark"><path class="cls-1" d="M127.0069,66.73973c-1.73555-25.25864-23.06685-46.38042-48.41658-47.72135-9.05075-.47336-20.77892-.4416-29.84158,0-7.96845.39063-15.51608,2.67707-22.19144,6.4008V0l-6.67054,10.73444c-5.85515-.72063-6.26895-.72063-12.46005-.00013L.0564,0h-.0564v71.95487l.01078-.01328c-.04068,29.57302.06306,201.70185.04291,218.19785-.00157,1.28295.21259,2.56049.70214,3.74637,3.61318,8.75245,16.90678,7.99436,19.48575-1.54414.21959-.81231.30868-1.65517.30882-2.49667l.0237-220.48504c0-.25956.00742-.51984.02691-.77868,1.17966-15.64187,13.99105-27.9886,29.63963-28.98287,8.61707-.54903,27.48633-.89911,35.20036,1.79423,12.05098,4.2036,20.20889,15.44298,21.00607,28.13509.01442.22944.01985.45816.01977.68795-.00307,9.23459-.29842,198.2192-.30084,219.45888-.00025,2.18922.65086,4.35667,1.99882,6.08169,4.27592,5.47204,13.09396,5.37025,17.09495-.16259,1.20669-1.66868,1.78278-3.71329,1.78278-5.77256l-.00003-223.0868-.03562.00543Z"/><path class="cls-1" d="M72.92636,58.99571h-18.80905c-8.51718,0-15.42172,6.90454-15.42172,15.42172v205.27747c0,6.8596,5.5608,12.42041,12.42041,12.42041h24.81176c6.8596,0,12.42041-5.5608,12.42041-12.42041V74.41751c0-8.51722-6.90457-15.42179-15.42179-15.42179Z"/></g></svg>